<!DOCTYPE svg PUBLIC "-//W3C//DTD SVG 1.1//EN" "http://www.w3.org/Graphics/SVG/1.1/DTD/svg11.dtd">
<!-- Uploaded to: SVG Repo, www.svgrepo.com, Transformed by: SVG Repo Mixer Tools -->
<svg height="256px" width="256px" version="1.1" id="Layer_1" xmlns="http://www.w3.org/2000/svg" xmlns:xlink="http://www.w3.org/1999/xlink" viewBox="0 0 512.00 512.00" xml:space="preserve" fill="#ffffff" stroke="#ffffff" stroke-width="0.00512">
<g id="SVGRepo_bgCarrier" stroke-width="0"/>
<g id="SVGRepo_tracerCarrier" stroke-linecap="round" stroke-linejoin="round" stroke="#080808" stroke-width="11.264"> <g> <path style="fill:#000000;" d="M0,260.908l174.648-81.136v38.568l-132.08,57.848v0.728l132.08,57.848v38.568L0,292.204V260.908z"/> <path style="fill:#000000;" d="M201.616,387.9l77.864-263.8h36.752l-77.864,263.8H201.616z"/> <path style="fill:#000000;" d="M512,293.284L337.352,373.34v-38.568l134.992-57.848v-0.728l-134.992-57.848V179.78L512,259.82 V293.284z"/> </g> </g>
<g id="SVGRepo_iconCarrier"> <g> <path style="fill:#000000;" d="M0,260.908l174.648-81.136v38.568l-132.08,57.848v0.728l132.08,57.848v38.568L0,292.204V260.908z"/> <path style="fill:#000000;" d="M201.616,387.9l77.864-263.8h36.752l-77.864,263.8H201.616z"/> <path style="fill:#000000;" d="M512,293.284L337.352,373.34v-38.568l134.992-57.848v-0.728l-134.992-57.848V179.78L512,259.82 V293.284z"/> </g> </g>
</svg>